<?xml version="1.0" encoding="utf-8"?>
<!-- Generator: Adobe Illustrator 24.3.0, SVG Export Plug-In . SVG Version: 6.00 Build 0)  -->
<svg version="1.1" id="logo-12" xmlns="http://www.w3.org/2000/svg" xmlns:xlink="http://www.w3.org/1999/xlink" x="0px" y="0px"
	 viewBox="0 0 96 26.6" style="enable-background:new 0 0 96 26.6;" xml:space="preserve">
<style type="text/css">
	.st0{fill:#515151;}
	.st1{fill:#FFBC00;}
	.st2{fill:none;}
	.st3{enable-background:new    ;}
	.st4{fill:#FFFFFF;}
</style>
<path class="st0" d="M90.7,15.8c1.9,0,3.3-1.4,3.3-3.3s-1.4-3.3-3.3-3.3c-1.9,0-3.3,1.4-3.3,3.3S88.8,15.8,90.7,15.8z"/>
<g>
	<path class="st0" d="M26.4,23.1l1.3-9.6l4.8,7.2l4.8-7.2l1.3,9.6h-1.4l-0.8-5.7l-4,5.7l-3.8-5.7l-0.8,5.7H26.4z"/>
	<path class="st0" d="M45,22.8c-0.6,0.3-1.3,0.5-1.9,0.5c-1,0-1.9-0.4-2.6-1.1s-1.1-1.6-1.1-2.6s0.4-1.9,1.1-2.6s1.6-1.1,2.6-1.1
		c0.6,0,1.3,0.2,1.8,0.5c0.5,0.3,1,0.8,1.4,1.3l0.4,0.6l-5.1,3c0.4,0.4,1,0.6,1.6,0.6c0.4,0,0.9-0.1,1.3-0.3c0.4-0.2,0.7-0.5,1-0.8
		l1.2,0.7C46.1,22.1,45.6,22.5,45,22.8z M40.8,20l3.8-2.2c-0.1-0.1-0.2-0.2-0.4-0.3c-0.3-0.2-0.7-0.3-1.1-0.3
		c-0.6,0-1.2,0.2-1.6,0.7c-0.4,0.4-0.7,1-0.7,1.6C40.8,19.7,40.8,19.9,40.8,20z"/>
	<path class="st0" d="M48.9,21.1c0,0.3,0.1,0.5,0.4,0.7c0.2,0.1,0.5,0.2,0.9,0.2c0.3,0,0.6-0.1,0.9-0.2c0.3-0.2,0.4-0.4,0.4-0.7
		c0-0.2-0.2-0.4-0.5-0.5c-0.2-0.1-0.5-0.2-1-0.3c-0.8-0.2-1.4-0.4-1.7-0.6c-0.5-0.4-0.8-0.9-0.8-1.6c0-0.5,0.2-0.9,0.5-1.3
		c0.3-0.3,0.7-0.6,1.2-0.7c0.3-0.1,0.7-0.1,1-0.1c0.4,0,0.7,0,1,0.1c0.5,0.2,0.9,0.4,1.2,0.7c0.3,0.4,0.5,0.8,0.5,1.3h-1.4
		c0-0.3-0.1-0.5-0.4-0.7c-0.2-0.1-0.5-0.2-0.9-0.2c-0.3,0-0.6,0.1-0.9,0.2c-0.3,0.2-0.4,0.4-0.4,0.7c0,0.2,0.2,0.4,0.5,0.5
		c0.2,0.1,0.5,0.2,1,0.3c0.8,0.2,1.4,0.4,1.7,0.6c0.5,0.4,0.8,0.9,0.8,1.6c0,0.5-0.2,1-0.5,1.3s-0.7,0.6-1.2,0.7
		c-0.3,0.1-0.7,0.1-1,0.1s-0.7,0-1-0.1c-0.5-0.1-0.9-0.4-1.2-0.7c-0.3-0.4-0.5-0.8-0.5-1.3H48.9z"/>
	<path class="st0" d="M55.6,21.1c0,0.3,0.1,0.5,0.4,0.7c0.2,0.1,0.5,0.2,0.9,0.2c0.3,0,0.6-0.1,0.9-0.2c0.3-0.2,0.4-0.4,0.4-0.7
		c0-0.2-0.2-0.4-0.5-0.5c-0.2-0.1-0.5-0.2-1-0.3c-0.8-0.2-1.4-0.4-1.7-0.6c-0.5-0.4-0.8-0.9-0.8-1.6c0-0.5,0.2-0.9,0.5-1.3
		c0.3-0.3,0.7-0.6,1.2-0.7c0.3-0.1,0.7-0.1,1-0.1c0.4,0,0.7,0,1,0.1c0.5,0.2,0.9,0.4,1.2,0.7c0.3,0.4,0.5,0.8,0.5,1.3h-1.4
		c0-0.3-0.1-0.5-0.4-0.7c-0.2-0.1-0.5-0.2-0.9-0.2c-0.3,0-0.6,0.1-0.9,0.2c-0.3,0.2-0.4,0.4-0.4,0.7c0,0.2,0.2,0.4,0.5,0.5
		c0.2,0.1,0.5,0.2,1,0.3c0.8,0.2,1.4,0.4,1.7,0.6c0.5,0.4,0.8,0.9,0.8,1.6c0,0.5-0.2,1-0.5,1.3s-0.7,0.6-1.2,0.7
		c-0.3,0.1-0.7,0.1-1,0.1s-0.7,0-1-0.1c-0.5-0.1-0.9-0.4-1.2-0.7c-0.3-0.4-0.5-0.8-0.5-1.3H55.6z"/>
	<path class="st0" d="M66.7,16.9V16h1.4v7h-1.4v-0.9c-0.6,0.7-1.3,1-2.3,1c-1,0-1.9-0.4-2.6-1.1s-1.1-1.6-1.1-2.6s0.4-1.9,1.1-2.6
		c0.7-0.5,1.6-0.9,2.6-0.9C65.4,15.9,66.1,16.2,66.7,16.9z M66.7,19.6c0-0.6-0.2-1.2-0.7-1.6c-0.4-0.4-1-0.7-1.6-0.7
		c-0.6,0-1.2,0.2-1.6,0.7c-0.4,0.4-0.7,1-0.7,1.6s0.2,1.2,0.7,1.6c0.4,0.4,1,0.7,1.6,0.7c0.6,0,1.2-0.2,1.6-0.7
		C66.5,20.8,66.7,20.2,66.7,19.6L66.7,19.6z"/>
	<path class="st0" d="M69.9,21.1c-0.2-0.5-0.3-1-0.3-1.5s0.1-1,0.3-1.5c0.7-1.5,1.9-2.2,3.5-2.2c1,0,1.8,0.4,2.4,1.1v-0.9h1.4v5.5
		c0,1.1-0.4,2.1-1.2,2.9c-0.8,0.8-1.7,1.2-2.8,1.2c-0.7,0-1.4-0.1-2-0.4s-1.1-0.7-1.5-1.3l1.1-0.8c0.2,0.3,0.5,0.6,0.9,0.8
		c0.4,0.2,0.9,0.3,1.4,0.3c0.6,0,1.1-0.2,1.6-0.6s0.8-0.9,0.9-1.5c-0.5,0.6-1.3,1-2.3,1C71.7,23.2,70.6,22.5,69.9,21.1z M75.8,19.5
		c0-0.3-0.1-0.6-0.2-0.8c-0.4-0.9-1.2-1.4-2.2-1.4s-1.8,0.5-2.2,1.4C71.1,19,71,19.3,71,19.6l0,0c0,0.3,0.1,0.7,0.2,1
		c0.4,0.9,1.2,1.4,2.2,1.4s1.8-0.5,2.2-1.4c0.1-0.3,0.2-0.6,0.2-1V19.5z"/>
	<path class="st0" d="M84.2,22.8c-0.6,0.3-1.3,0.5-1.9,0.5c-1,0-1.9-0.4-2.6-1.1s-1.1-1.6-1.1-2.6s0.4-1.9,1.1-2.6s1.6-1.1,2.6-1.1
		c0.6,0,1.3,0.2,1.8,0.5c0.5,0.3,1,0.8,1.4,1.3l0.4,0.6l-5.1,3c0.4,0.4,1,0.6,1.6,0.6c0.4,0,0.9-0.1,1.3-0.3c0.4-0.2,0.7-0.5,1-0.8
		l1.2,0.7C85.3,22.1,84.8,22.5,84.2,22.8z M80,20l3.8-2.2c-0.1-0.1-0.2-0.2-0.4-0.3c-0.3-0.2-0.7-0.3-1.1-0.3
		c-0.6,0-1.2,0.2-1.6,0.7c-0.4,0.4-0.7,1-0.7,1.6C80,19.7,80,19.9,80,20z"/>
</g>
<g>
	<g>
		<path class="st0" d="M19.1,11.5v7.3l0,0c0,1.6-0.7,2.9-2,4s-2.9,1.7-4.8,1.7s-3.5-0.6-4.8-1.7s-2-2.5-2-4v-7.3h2.4v7.3
			c0,1,0.4,1.9,1.3,2.6c0.9,0.7,1.9,1.1,3.2,1.1s2.3-0.4,3.2-1.1c0.9-0.7,1.3-1.6,1.3-2.6v-7.3H19.1z"/>
	</g>
</g>
<path class="st1" d="M26.8,9.5c0,4-3.3,7.4-7.4,7.4h-7.4V9.5c0-4,3.3-7.4,7.4-7.4S26.8,5.4,26.8,9.5z"/>
<rect x="18.5" y="7.1" class="st2" width="12.8" height="5.2"/>
<g class="st3">
	<path class="st4" d="M15.9,8.7c0.3,0,0.5,0.1,0.7,0.3c0.2,0.2,0.3,0.4,0.3,0.7c0,0.3-0.1,0.5-0.3,0.7c-0.2,0.2-0.4,0.3-0.7,0.3
		s-0.5-0.1-0.7-0.3s-0.3-0.4-0.3-0.7c0-0.3,0.1-0.5,0.3-0.7S15.6,8.7,15.9,8.7z"/>
	<path class="st4" d="M19.6,8.7c0.3,0,0.5,0.1,0.7,0.3c0.2,0.2,0.3,0.4,0.3,0.7c0,0.3-0.1,0.5-0.3,0.7c-0.2,0.2-0.4,0.3-0.7,0.3
		s-0.5-0.1-0.7-0.3c-0.2-0.2-0.3-0.4-0.3-0.7c0-0.3,0.1-0.5,0.3-0.7C19.1,8.8,19.3,8.7,19.6,8.7z"/>
	<path class="st4" d="M23.3,8.7c0.3,0,0.5,0.1,0.7,0.3c0.2,0.2,0.3,0.4,0.3,0.7c0,0.3-0.1,0.5-0.3,0.7c-0.2,0.2-0.4,0.3-0.7,0.3
		c-0.3,0-0.5-0.1-0.7-0.3c-0.2-0.2-0.3-0.4-0.3-0.7c0-0.3,0.1-0.5,0.3-0.7C22.8,8.8,23,8.7,23.3,8.7z"/>
</g>
<rect x="90.2" y="10" class="st2" width="9.1" height="12.6"/>
<g class="st3">
	<path class="st4" d="M93.3,12.5c0,0.5-0.1,0.9-0.3,1.3c-0.2,0.4-0.5,0.7-0.9,0.9c-0.4,0.2-0.8,0.3-1.3,0.3s-0.9-0.1-1.3-0.3
		c-0.4-0.2-0.7-0.5-1-0.9c-0.2-0.4-0.3-0.8-0.3-1.3c0-0.5,0.1-0.9,0.3-1.3c0.2-0.4,0.5-0.7,0.9-0.9c0.4-0.2,0.8-0.3,1.3-0.3
		c0.5,0,0.9,0.1,1.3,0.3c0.4,0.2,0.7,0.5,0.9,0.9C93.2,11.6,93.3,12,93.3,12.5z M92.8,12.5c0-0.6-0.2-1.1-0.6-1.5
		c-0.4-0.4-0.9-0.6-1.5-0.6c-0.6,0-1.1,0.2-1.5,0.6c-0.4,0.4-0.6,0.9-0.6,1.4c0,0.4,0.1,0.7,0.3,1c0.2,0.3,0.4,0.6,0.8,0.7
		c0.3,0.2,0.7,0.3,1,0.3c0.4,0,0.7-0.1,1-0.3c0.3-0.2,0.6-0.4,0.8-0.7S92.8,12.8,92.8,12.5z M89.6,11h1.3c0.3,0,0.5,0,0.6,0.1
		c0.1,0.1,0.2,0.2,0.3,0.3c0.1,0.1,0.1,0.3,0.1,0.5c0,0.2,0,0.3-0.1,0.4c0,0.1-0.1,0.2-0.3,0.3c0.1,0.1,0.2,0.1,0.2,0.2
		c0,0.1,0.1,0.2,0.1,0.4c0,0.4,0,0.6,0,0.6c0,0.1,0.1,0.1,0.1,0.2h-0.7c0-0.1-0.1-0.1-0.1-0.2c0-0.1,0-0.1,0-0.3c0-0.3,0-0.4,0-0.5
		c0-0.1-0.1-0.1-0.1-0.1c-0.1,0-0.2,0-0.3,0h-0.5v1.1h-0.6V11z M90.3,11.6v0.7h0.5c0.2,0,0.3,0,0.4-0.1c0.1-0.1,0.1-0.1,0.1-0.3
		c0-0.1,0-0.2-0.1-0.3c-0.1-0.1-0.2-0.1-0.4-0.1H90.3z"/>
</g>
</svg>
