<svg id="logo-12" xmlns="http://www.w3.org/2000/svg" viewBox="0 0 53.62 42.64"><defs><style>.cls-1{fill:#ffbc00;}.cls-2{fill:#b5b1ae;}</style></defs><path class="cls-1" d="M27.71,27.61a5.87,5.87,0,1,0-5.82-5.87A5.83,5.83,0,0,0,27.71,27.61Z"/><path class="cls-1" d="M30.53,29.42H24.9a7.78,7.78,0,0,0-8,7.52,1.56,1.56,0,0,0,1.6,1.51H37a1.55,1.55,0,0,0,1.6-1.51A7.78,7.78,0,0,0,30.53,29.42Z"/><path class="cls-2" d="M41.12,18.46a5.61,5.61,0,1,0-5.61-5.6A5.6,5.6,0,0,0,41.12,18.46Zm-23,3.93a8.17,8.17,0,0,1,.12-1.12,5.11,5.11,0,0,0-2.5-.57H11.41a6.36,6.36,0,0,0-6.17,6.54,1.27,1.27,0,0,0,1.23,1.31h14A9.42,9.42,0,0,1,18.12,22.39Zm-3.91-3.93a5.61,5.61,0,1,0-5.61-5.6A5.6,5.6,0,0,0,14.21,18.46Zm29.7,2.24H39.58a5.89,5.89,0,0,0-2.51.58,10.17,10.17,0,0,1,.11,1.11,9.42,9.42,0,0,1-2.33,6.16h14a1.28,1.28,0,0,0,1.24-1.31A6.36,6.36,0,0,0,43.91,20.7Z"/></svg>